<?xml version="1.0" encoding="UTF-8"?>
<svg id="Layer_1" data-name="Layer 1" xmlns="http://www.w3.org/2000/svg" viewBox="0 0 514.42 171.65">
  <defs>
    <style>
      .cls-1 {
        fill: #fff;
      }

      .cls-2 {
        fill: #ff9700;
      }
    </style>
  </defs>
  <path class="cls-1" d="M403.5,127.9v-53.57h18.87c15.2,0,24.52,7.08,24.52,19.5s-9.15,19.9-23.88,19.9h-7.88v14.09l-11.62.08ZM415.12,85.07v17.91h7.56c7.64,0,12.26-2.95,12.26-9.16,0-5.89-4.62-8.76-12.26-8.76h-7.56Z"/>
  <path class="cls-1" d="M450.62,108.08c0-11.3,9.23-20.78,21.33-20.78s21.41,8.92,21.41,20.78v19.82h-10.75v-4.62c-2.79,3.5-7.08,5.65-12.5,5.65-11.46,0-19.5-9.39-19.5-20.86ZM482.06,108.16c0-5.57-4.3-10.19-10.11-10.19s-10.03,4.62-10.03,10.19,4.22,10.19,10.03,10.19,10.11-4.62,10.11-10.19Z"/>
  <path class="cls-1" d="M260.05,107.35v20.62h-11.3v-18.71c0-6.05-2.63-11.14-8.84-11.14s-8.76,5.01-8.76,10.99v13.21c0,3.12-2.53,5.65-5.65,5.65h0c-3.12,0-5.65-2.53-5.65-5.65v-13.14c0-6.05-2.63-11.06-8.76-11.06s-8.76,5.09-8.76,11.06v18.79h-11.3v-20.62c0-10.99,6.45-20.22,19.19-20.22,7.56,0,13.06,3.34,15.36,8.76,2.47-5.41,8.04-8.76,15.12-8.76,12.82,0,19.34,9.23,19.34,20.22Z"/>
  <path class="cls-1" d="M271.51,112.36v-14.25h-7.24v-9.55h7.24v-4.38c0-3.12,2.53-5.65,5.65-5.65h0c3.12,0,5.65,2.53,5.65,5.65v4.38h13.93v9.55h-13.93v13.93c0,4.38,2.63,6.93,6.77,6.93,2.31,0,5.25-.72,7.16-1.91v10.11c-1.99,1.27-5.41,1.91-8.2,1.91-11.38,0-17.04-6.85-17.04-16.72Z"/>
  <path class="cls-1" d="M301.2,108.14c0-11.3,9.23-20.78,21.33-20.78s21.41,8.92,21.41,20.78v19.82h-10.75v-4.62c-2.79,3.5-7.08,5.65-12.5,5.65-11.46,0-19.5-9.39-19.5-20.86ZM332.65,108.22c0-5.57-4.3-10.19-10.11-10.19s-10.03,4.62-10.03,10.19,4.22,10.19,10.03,10.19,10.11-4.62,10.11-10.19Z"/>
  <path class="cls-1" d="M350.16,108.14c0-11.3,9.23-20.78,21.33-20.78s21.41,8.92,21.41,20.78v19.82h-10.75v-4.62c-2.79,3.5-7.08,5.65-12.5,5.65-11.46,0-19.5-9.39-19.5-20.86ZM381.6,108.22c0-5.57-4.3-10.19-10.11-10.19s-10.03,4.62-10.03,10.19,4.22,10.19,10.03,10.19,10.11-4.62,10.11-10.19Z"/>
  <path class="cls-2" d="M65.1,42.76l-33.49,87.64c-1.49,3.91-7.72,4.19-10.82.48L2.55,109.04c-2.42-2.9-3.17-6.47-2.01-9.53l21.57-56.44c3.08-8.07,13.56-11.56,23.4-7.8l19.6,7.49Z"/>
  <path class="cls-2" d="M161.01,96.25l-20.97,54.88c-1.05,2.74-3.83,4.41-6.74,4.04l-27.93-3.56c-4.08-.52-6.6-4.73-5.13-8.57l23.29-60.95-14.94-5.71-34.83,91.17c-1.82,4.77-8.24,5.56-11.16,1.37-5.7-8.2-11.41-16.4-17.11-24.61-2.31-3.33-2.83-7.59-1.38-11.37l25.94-67.89c3.75-9.83,14.76-14.77,24.62-11.01l57.27,21.88c8.12,3.1,12.19,12.2,9.09,20.32Z"/>
  <path class="cls-2" d="M106.75,19.97c-.21.63-.45,1.2-.71,1.73,0,0-.55,1.11-1.32,2.18-1.07,1.47-7.22,7.35-16.18,15.26-1.54,1.36-3.98.71-4.63-1.24-3.8-11.33-6.2-19.51-6.37-21.31-.13-1.32-.05-2.55-.05-2.55.07-.89.21-1.84.49-2.89,2.33-8.69,11.79-13.55,20.4-9.97,7.36,3.06,10.94,11.24,8.37,18.78Z"/>
  <path class="cls-1" d="M514.42,76.19v51.71h-11.26v-51.71c0-3.11,2.52-5.63,5.63-5.63h0c3.11,0,5.63,2.52,5.63,5.63Z"/>
</svg>